<?xml version="1.0" encoding="utf-8"?>
<!-- Generator: Adobe Illustrator 25.0.0, SVG Export Plug-In . SVG Version: 6.00 Build 0)  -->
<svg version="1.1" xmlns="http://www.w3.org/2000/svg" xmlns:xlink="http://www.w3.org/1999/xlink" x="0px" y="0px"
	 viewBox="0 0 80 80" style="enable-background:new 0 0 80 80;" xml:space="preserve">
<style type="text/css">
	.st0{fill:none;stroke:#603913;stroke-width:3.158;stroke-miterlimit:10;}
	.st1{fill:#3C2415;}
	.st2{fill:#3C2415;stroke:#FFFFFF;stroke-width:2;stroke-linecap:round;stroke-miterlimit:10;}
</style>
<g id="Layer_1">
	<circle class="st0" cx="40" cy="40" r="38.13"/>
</g>
<g id="Layer_2">
	<path class="st1" d="M41.8,13.2c-9.5-0.99-18.02,5.91-19.01,15.41c-0.09,0.88-0.11,1.75-0.07,2.6c0.01,0.31,0.03,0.62,0.07,0.92
		c0.18,1.06,0.55,2.6,1.06,4.45c2.75,10.07,9.8,29.28,15.41,30.27c5.67,1.01,13.66-20.89,16.47-29.18c0.77-1.67,1.29-3.51,1.49-5.45
		C58.21,22.72,51.31,14.2,41.8,13.2z M45.12,33.41c-1.07,1.82-3.07,3.02-5.33,2.94c-2.52-0.09-4.61-1.74-5.39-3.99
		c-0.24-0.68-0.35-1.4-0.32-2.15c0.12-3.27,2.86-5.83,6.14-5.71c3.27,0.12,5.82,2.87,5.7,6.14C45.88,31.64,45.6,32.6,45.12,33.41z"
		/>
	<path class="st1" d="M21.12,33.81c0.02,0.31,0.05,0.62,0.1,0.92c-0.08-0.37-0.13-0.67-0.16-0.92H21.12z"/>
</g>
</svg>
