<?xml version="1.0" encoding="utf-8"?>
<!-- Generator: Adobe Illustrator 25.0.0, SVG Export Plug-In . SVG Version: 6.00 Build 0)  -->
<svg version="1.1" id="Layer_1" xmlns="http://www.w3.org/2000/svg" xmlns:xlink="http://www.w3.org/1999/xlink" x="0px" y="0px"
	 viewBox="0 0 160 160" style="enable-background:new 0 0 160 160;" xml:space="preserve">
<style type="text/css">
	.st0{fill:none;stroke:#603913;stroke-width:5;stroke-miterlimit:10;}
</style>
<g id="Layer_1_1_">
	<circle class="st0" cx="80" cy="80" r="76.98"/>
</g>
<g id="Layer_2_1_">
	<path class="st0" d="M106.67,64.41c0.41-3.15,2.53-4.82,5.16-5.67l-4.22-7c-5.3,4.61-12.56,8.97-16.78,3.2
		c-3.73-5.11-1.76-10.21,1-13.95c-3.72-1.12-7.66-1.73-11.75-1.73c-22.5,0-40.74,18.24-40.74,40.74s18.24,40.74,40.74,40.74
		c21.28,0,38.74-16.32,40.57-37.13C110.96,80.47,105.64,72.19,106.67,64.41z"/>
	<circle class="st0" cx="67.39" cy="67.77" r="4.88"/>
	<circle class="st0" cx="67.39" cy="94.68" r="6.77"/>
	<ellipse class="st0" cx="95.77" cy="87.91" rx="1.8" ry="1.14"/>
</g>
</svg>
