<?xml version="1.0" encoding="utf-8"?>
<!-- Generator: Adobe Illustrator 25.0.0, SVG Export Plug-In . SVG Version: 6.00 Build 0)  -->
<svg version="1.1" xmlns="http://www.w3.org/2000/svg" xmlns:xlink="http://www.w3.org/1999/xlink" x="0px" y="0px"
	 viewBox="0 0 80 80" style="enable-background:new 0 0 80 80;" xml:space="preserve">
<style type="text/css">
	.st0{fill:#27AAE1;}
	.st1{fill:#FFFFFF;}
	.st2{fill:none;stroke:#FFFFFF;stroke-width:3;stroke-miterlimit:10;}
</style>
<g id="Layer_1">
	<g>
		<ellipse transform="matrix(0.1602 -0.9871 0.9871 0.1602 -5.8908 73.0762)" class="st1" cx="40" cy="40" rx="8.4" ry="8.4"/>
		<path class="st1" d="M51.82,17.44H28.18c-5.93,0-10.74,4.81-10.74,10.74v23.64c0,5.93,4.81,10.74,10.74,10.74h23.64
			c5.93,0,10.74-4.81,10.74-10.74V28.18C62.56,22.25,57.75,17.44,51.82,17.44z M40,52.24c-6.76,0-12.24-5.48-12.24-12.24
			S33.24,27.76,40,27.76S52.24,33.24,52.24,40S46.76,52.24,40,52.24z M52.76,30.34c-1.43,0-2.58-1.16-2.58-2.58
			c0-1.43,1.15-2.58,2.58-2.58c1.42,0,2.58,1.15,2.58,2.58C55.34,29.18,54.18,30.34,52.76,30.34z"/>
	</g>
	<circle class="st2" cx="40" cy="40" r="37"/>
</g>
<g id="Layer_2">
</g>
</svg>
