<?xml version="1.0" encoding="utf-8"?>
<!-- Generator: Adobe Illustrator 25.0.0, SVG Export Plug-In . SVG Version: 6.00 Build 0)  -->
<svg version="1.1" xmlns="http://www.w3.org/2000/svg" xmlns:xlink="http://www.w3.org/1999/xlink" x="0px" y="0px"
	 viewBox="0 0 80 80" style="enable-background:new 0 0 80 80;" xml:space="preserve">
<style type="text/css">
	.st0{fill:#FFFFFF;}
	.st1{fill:#FFFFFF;stroke:#FFFFFF;stroke-miterlimit:10;}
	.st2{fill:none;stroke:#FFFFFF;stroke-width:3;stroke-miterlimit:10;}
</style>
<g id="Layer_1">
	<path class="st0" d="M-54.38,13.98c2.54-0.15,5.67,0,5.67,0V5.92c0,0-3.28,0-11.34,0s-8.31,11.34-8.31,11.34v8.01h-8.71v9.5h8.71
		v23.38h10.35V34.78h7.61l1.49-9.5h-9.1v-8.01C-58.01,17.27-56.91,14.13-54.38,13.98z"/>
	<g>
		
			<ellipse transform="matrix(0.1602 -0.9871 0.9871 0.1602 116.2445 110.006)" class="st0" cx="122.77" cy="-13.31" rx="8.4" ry="8.4"/>
		<path class="st0" d="M134.59-35.87h-23.64c-5.93,0-10.74,4.81-10.74,10.74v23.64c0,5.93,4.81,10.74,10.74,10.74h23.64
			c5.93,0,10.74-4.81,10.74-10.74v-23.64C145.33-31.06,140.52-35.87,134.59-35.87z M122.77-1.07c-6.76,0-12.24-5.48-12.24-12.24
			s5.48-12.24,12.24-12.24s12.24,5.48,12.24,12.24S129.53-1.07,122.77-1.07z M135.53-22.97c-1.43,0-2.58-1.16-2.58-2.58
			c0-1.43,1.15-2.58,2.58-2.58c1.42,0,2.58,1.15,2.58,2.58C138.11-24.13,136.95-22.97,135.53-22.97z"/>
	</g>
	<polygon class="st1" points="49.08,30.67 33.97,47.85 53.65,61.99 60.02,20.97 13.04,39.81 26.35,44.94 	"/>
	<path class="st0" d="M31.8-46.44H3.86c-6.36,0-11.52,5.16-11.52,11.52v10.08c0,6.36,5.16,11.52,11.52,11.52H31.8
		c6.36,0,11.52-5.16,11.52-11.52v-10.08C43.33-41.28,38.17-46.44,31.8-46.44z M19.36-25.27l-7.87,4.41l0.11-9.02l0.11-9.02
		l7.76,4.61l7.76,4.61L19.36-25.27z"/>
	<circle class="st2" cx="40" cy="40" r="37"/>
</g>
<g id="Layer_2">
</g>
</svg>
