<?xml version="1.0" encoding="utf-8"?>
<!-- Generator: Adobe Illustrator 25.0.0, SVG Export Plug-In . SVG Version: 6.00 Build 0)  -->
<svg version="1.1" id="Layer_1" xmlns="http://www.w3.org/2000/svg" xmlns:xlink="http://www.w3.org/1999/xlink" x="0px" y="0px"
	 viewBox="0 0 160 160" style="enable-background:new 0 0 160 160;" xml:space="preserve">
<style type="text/css">
	.st0{fill:none;stroke:#603913;stroke-width:5;stroke-miterlimit:10;}
	.st1{fill:none;stroke:#603913;stroke-width:5.3429;stroke-miterlimit:10;}
</style>
<g id="Layer_1_1_">
	<circle class="st0" cx="80" cy="80" r="76.98"/>
</g>
<g id="Layer_2_1_">
	<polygon class="st0" points="38.6,87.58 121.4,87.58 112.4,124.72 47.6,124.72 	"/>
	<path class="st1" d="M41.44,70.15h77.12c4.81,0,8.72,3.9,8.72,8.72l0,0c0,4.81-3.9,8.72-8.72,8.72H41.44
		c-4.81,0-8.72-3.9-8.72-8.72l0,0C32.73,74.05,36.63,70.15,41.44,70.15z"/>
	<path class="st1" d="M54.71,52.72h50.59c4.81,0,8.72,3.9,8.72,8.72l0,0c0,4.81-3.9,8.72-8.72,8.72H54.71
		c-4.81,0-8.72-3.9-8.72-8.72l0,0C45.99,56.62,49.89,52.72,54.71,52.72z"/>
	<path class="st1" d="M68.54,35.28h22.93c4.81,0,8.72,3.9,8.72,8.72l0,0c0,4.81-3.9,8.72-8.72,8.72H68.54
		c-4.81,0-8.72-3.9-8.72-8.72l0,0C59.82,39.19,63.72,35.28,68.54,35.28z"/>
</g>
</svg>
