<?xml version="1.0" encoding="utf-8"?>
<!-- Generator: Adobe Illustrator 25.0.0, SVG Export Plug-In . SVG Version: 6.00 Build 0)  -->
<svg version="1.1" xmlns="http://www.w3.org/2000/svg" xmlns:xlink="http://www.w3.org/1999/xlink" x="0px" y="0px"
	 viewBox="0 0 80 80" style="enable-background:new 0 0 80 80;" xml:space="preserve">
<style type="text/css">
	.st0{fill:#27AAE1;}
	.st1{fill:#FFFFFF;}
	.st2{fill:none;stroke:#FFFFFF;stroke-width:3;stroke-miterlimit:10;}
</style>
<g id="Layer_1">
	<path class="st0" d="M-46.71,21.94c2.54-0.15,5.67,0,5.67,0v-8.06c0,0-3.28,0-11.34,0s-8.31,11.34-8.31,11.34v8.01h-8.71v9.5h8.71
		v23.38h10.35V42.74h7.61l1.49-9.5h-9.1v-8.01C-50.34,25.23-49.25,22.09-46.71,21.94z"/>
	<g>
		
			<ellipse transform="matrix(0.1602 -0.9871 0.9871 0.1602 116.2445 110.006)" class="st1" cx="122.77" cy="-13.31" rx="8.4" ry="8.4"/>
		<path class="st1" d="M134.59-35.87h-23.64c-5.93,0-10.74,4.81-10.74,10.74v23.64c0,5.93,4.81,10.74,10.74,10.74h23.64
			c5.93,0,10.74-4.81,10.74-10.74v-23.64C145.33-31.06,140.52-35.87,134.59-35.87z M122.77-1.07c-6.76,0-12.24-5.48-12.24-12.24
			s5.48-12.24,12.24-12.24s12.24,5.48,12.24,12.24S129.53-1.07,122.77-1.07z M135.53-22.97c-1.43,0-2.58-1.16-2.58-2.58
			c0-1.43,1.15-2.58,2.58-2.58c1.42,0,2.58,1.15,2.58,2.58C138.11-24.13,136.95-22.97,135.53-22.97z"/>
	</g>
	<polygon class="st0" points="135.92,40.76 132.48,44.67 136.97,47.89 138.42,38.55 127.71,42.84 130.74,44.01 	"/>
	<path class="st1" d="M53.97,23.43H26.03c-6.36,0-11.52,5.16-11.52,11.52v10.08c0,6.36,5.16,11.52,11.52,11.52h27.95
		c6.36,0,11.52-5.16,11.52-11.52V34.96C65.5,28.59,60.34,23.43,53.97,23.43z M41.53,44.61l-7.87,4.41L33.77,40l0.11-9.02l7.76,4.61
		l7.76,4.61L41.53,44.61z"/>
	<circle class="st2" cx="40" cy="40" r="37"/>
</g>
<g id="Layer_2">
</g>
</svg>
